<svg width="82" height="86" viewBox="0 0 82 86" fill="none" xmlns="http://www.w3.org/2000/svg">
<path d="M54.43 8.35615L67.1269 7.81991C69.4299 7.72253 71.3643 9.53498 71.4171 11.8396L71.8657 31.4514C71.9148 33.5953 70.31 35.4178 68.1772 35.6405C67.4604 35.7154 66.9245 36.3335 66.9522 37.0537L68.5472 78.476C68.6559 81.3 66.4637 83.6819 63.6403 83.8073L15.1351 85.9607C14.3725 85.9945 13.7299 85.3978 13.7072 84.6349L11.5612 12.7308C11.5393 11.9977 12.0995 11.3775 12.8313 11.3253L54.43 8.35615Z" fill="#111111"/>
<g opacity="0.3">
<path d="M13.668 83.2752L13.7086 84.6345L65.9246 79.8334L64.9266 7.91272C64.9266 7.91272 52.2516 9.83363 52.0209 9.83363C51.7903 9.83363 13.668 83.2752 13.668 83.2752Z" fill="black"/>
</g>
<path d="M47.8205 4.49594L62.974 3.57178L64.5384 78.1161L11.2042 83.5252L3.34961 9.37224L47.8205 4.49594Z" fill="#EBEBEB"/>
<path d="M47.8206 4.49589C47.8206 4.49589 47.5546 4.5302 47.0352 4.58957C46.5143 4.64842 45.7419 4.73551 44.7298 4.84978C42.702 5.07541 39.7153 5.40766 35.8716 5.83491C28.1814 6.6836 17.0652 7.91046 3.35525 9.42338L3.4009 9.36691C5.50997 29.2347 8.24975 55.0433 11.2724 83.5181L11.1975 83.4571C15.006 83.0708 19.0571 82.6599 23.152 82.2445C37.6613 80.7743 51.6175 79.3598 64.5316 78.0514L64.473 78.1177C63.8038 45.5248 63.2549 18.7925 62.9422 3.57278L62.9757 3.60365C58.0437 3.8979 54.2555 4.1238 51.6991 4.27633C50.4221 4.35075 49.4531 4.40696 48.8018 4.44496C48.1515 4.48138 47.8206 4.49589 47.8206 4.49589C47.8206 4.49589 48.1507 4.47003 48.8002 4.42781C49.4512 4.38637 50.42 4.32436 51.6964 4.24308C54.2528 4.08368 58.0405 3.84776 62.972 3.54032L63.0047 3.53821L63.0055 3.5712C63.3317 18.7907 63.9049 45.5224 64.6034 78.1148L64.6047 78.175L64.5448 78.181C51.6307 79.4918 37.6748 80.9084 23.1657 82.3812C19.0708 82.7963 15.0198 83.2072 11.2112 83.5933L11.1434 83.6002L11.1363 83.5323C8.12651 55.0562 5.3986 29.2466 3.29851 9.37773L3.29297 9.3268L3.3439 9.32125C17.0563 7.82733 28.1745 6.61604 35.8661 5.77817C39.7108 5.36253 42.6986 5.03952 44.7269 4.82048C45.7398 4.71255 46.5124 4.63048 47.0336 4.5748C47.5538 4.51991 47.8206 4.49589 47.8206 4.49589Z" fill="#263238"/>
<path d="M0.699219 6.89631L7.91918 81.9186L63.7767 76.657L55.7215 1.69067L0.699219 6.89631Z" fill="#F5F5F5"/>
<path d="M0.699219 6.89623C1.15919 6.85216 22.3681 4.82411 55.7163 1.63492L55.7714 1.62964L55.7772 1.68479C58.042 22.7298 60.8319 48.6511 63.8451 76.6498L63.8525 76.719L63.7831 76.7256C63.6583 76.7374 63.5229 76.7501 63.3872 76.7628C43.4717 78.6364 24.5993 80.4119 7.92499 81.9805L7.86324 81.9864L7.85743 81.9246C3.61924 37.5033 0.75147 7.44303 0.699219 6.89623C0.752262 7.4425 3.66965 37.4983 7.98094 81.9127L7.91338 81.8568C24.5875 80.2842 43.4593 78.5042 63.3743 76.6258C63.5099 76.6131 63.6456 76.6002 63.7701 76.5886L63.7084 76.6643C60.7047 48.6646 57.9235 22.7425 55.6659 1.69667L55.7268 1.74628C22.3723 4.86792 1.15893 6.85322 0.699219 6.89623Z" fill="#263238"/>
<path d="M43.5371 63.7949C43.5477 59.2551 47.2499 55.5705 51.7895 55.5811C56.3293 55.5916 60.0138 59.2938 60.0033 63.8334C59.9927 68.3732 56.2905 72.0578 51.7507 72.0472C47.2111 72.0366 43.5266 68.3344 43.5371 63.7949ZM59.852 63.8331C59.8626 59.3767 56.2456 55.7428 51.7892 55.7323C47.333 55.7217 43.6989 59.3387 43.6883 63.7951C43.6778 68.2516 47.2948 71.8854 51.7512 71.896C56.2076 71.9063 59.8415 68.2893 59.852 63.8331Z" fill="#E0E0E0"/>
<path d="M44.4766 63.7969C44.4858 59.8374 47.7146 56.624 51.6741 56.6332C55.6336 56.6424 58.8471 59.8712 58.8379 63.8307C58.8286 67.7902 55.5998 71.0037 51.6403 70.9945C47.6811 70.985 44.4673 67.7565 44.4766 63.7969ZM57.7786 63.8284C57.7865 60.4531 55.047 57.7007 51.6715 57.6927C48.2962 57.6848 45.5438 60.4243 45.5356 63.7996C45.5277 67.1748 48.2672 69.9275 51.6424 69.9355C55.0182 69.9431 57.7707 67.2036 57.7786 63.8284Z" fill="#E0E0E0"/>
<path d="M46.2422 63.9022C46.244 63.0646 46.4356 62.2631 46.8112 61.5203L47.7564 61.9982C47.4561 62.5922 47.3031 63.2335 47.3015 63.9046C47.2959 66.2496 49.1994 68.162 51.5444 68.1676C52.3324 68.1694 53.1019 67.9543 53.7704 67.5453L54.3233 68.4489C53.4878 68.9601 52.5261 69.229 51.5421 69.2266C48.6128 69.22 46.2353 66.8315 46.2422 63.9022Z" fill="#E0E0E0"/>
<path d="M49.1035 59.2012C49.8588 58.8077 50.7107 58.6008 51.5675 58.6029C54.4965 58.6098 56.874 60.9983 56.8671 63.9276C56.8647 64.9283 56.5826 65.9028 56.0511 66.7455L55.1552 66.1805C55.5803 65.5065 55.806 64.7267 55.8081 63.9252C55.8136 61.5802 53.9101 59.6677 51.5652 59.6622C50.869 59.6606 50.2056 59.8216 49.593 60.1406L49.1035 59.2012Z" fill="#E0E0E0"/>
<path d="M54.3989 20.9907C54.4026 21.0284 43.8617 22.0547 30.8585 23.2824C17.8507 24.5106 7.30643 25.4751 7.30274 25.4374C7.2993 25.3996 17.8378 24.3736 30.8455 23.1454C43.8488 21.9178 54.3955 20.953 54.3989 20.9907Z" fill="#263238"/>
<path d="M28.8422 20.401C28.8459 20.4387 23.9815 20.9291 17.9789 21.4956C11.9742 22.0625 7.10499 22.4913 7.10156 22.4536C7.09813 22.4158 11.9612 21.9258 17.966 21.3587C23.9686 20.7924 28.8385 20.3633 28.8422 20.401Z" fill="#263238"/>
<path d="M54.604 24.0477C54.6077 24.0855 44.0668 25.1118 31.0635 26.3394C18.0558 27.5676 7.51151 28.5321 7.50781 28.4944C7.50412 28.4566 18.0429 27.4306 31.0506 26.2024C44.0539 24.9748 54.6005 24.0097 54.604 24.0477Z" fill="#263238"/>
<path d="M54.809 27.1045C54.8127 27.1422 44.2719 28.1685 31.2686 29.3961C18.2609 30.6243 7.71659 31.5889 7.71289 31.5511C7.70946 31.5134 18.2479 30.4874 31.2557 29.2592C44.259 28.0315 54.8056 27.0667 54.809 27.1045Z" fill="#263238"/>
<path d="M55.0139 30.1612C55.0176 30.199 44.4767 31.2253 31.4734 32.4529C18.4657 33.6811 7.9214 34.6456 7.91797 34.6079C7.91428 34.5702 18.453 33.5441 31.4608 32.3159C44.4638 31.0883 55.0104 30.1235 55.0139 30.1612Z" fill="#263238"/>
<path d="M55.2192 33.2179C55.2229 33.2556 44.682 34.2819 31.6788 35.5096C18.671 36.7377 8.12674 37.7023 8.12305 37.6645C8.11962 37.6268 18.6581 36.6008 31.6658 35.3726C44.6691 34.1449 55.2158 33.1801 55.2192 33.2179Z" fill="#263238"/>
<path d="M55.4263 36.2746C55.4297 36.3124 44.8891 37.3387 31.8858 38.5663C18.8781 39.7945 8.33377 40.759 8.33008 40.7213C8.32665 40.6836 18.8651 39.6575 31.8729 38.4294C44.8762 37.202 55.4228 36.2369 55.4263 36.2746Z" fill="#263238"/>
<path d="M55.6314 39.3317C55.6351 39.3694 45.232 40.3825 32.3984 41.5943C19.5606 42.8064 9.15382 43.758 9.15039 43.7203C9.1467 43.6825 19.5477 42.6697 32.3855 41.4573C45.2191 40.2455 55.628 39.2939 55.6314 39.3317Z" fill="#263238"/>
<path d="M37.4838 45.2112C37.4872 45.249 31.2073 45.8454 23.4587 46.5429C15.7075 47.2406 9.42335 47.7755 9.41992 47.7378C9.41649 47.7 15.6951 47.1039 23.4463 46.4059C31.1949 45.7084 37.4804 45.1735 37.4838 45.2112Z" fill="#263238"/>
<path d="M29.8571 70.4765C29.8603 70.5143 26.0382 70.8697 21.3216 71.2703C16.6031 71.6709 12.7769 71.9652 12.7734 71.9272C12.7703 71.8894 16.5915 71.534 21.3097 71.1334C26.0266 70.7328 29.8539 70.4388 29.8571 70.4765Z" fill="black"/>
<path d="M22.5172 73.3952C22.5204 73.433 20.3762 73.6459 17.7286 73.8708C15.0801 74.0956 12.9312 74.2474 12.9277 74.2094C12.9246 74.1716 15.0682 73.9587 17.7169 73.7338C20.3646 73.509 22.5141 73.3572 22.5172 73.3952Z" fill="black"/>
<path d="M21.9289 51.8816C21.9326 51.9193 19.4097 52.1988 16.2947 52.5059C13.1786 52.8131 10.6502 53.0314 10.6465 52.9936C10.6428 52.9559 13.1651 52.6764 16.2812 52.3692C19.3963 52.0621 21.9252 51.8438 21.9289 51.8816Z" fill="#111111"/>
<path d="M39.2882 51.5435C39.2882 51.5435 39.3043 51.5477 39.3351 51.559C39.3668 51.5693 39.4125 51.5881 39.4684 51.6218C39.5819 51.6862 39.7376 51.806 39.9089 51.9945C40.2527 52.3692 40.6647 53.0091 41.0183 53.9074C41.3619 54.8018 41.6857 55.9732 41.5936 57.3518C41.5669 57.6944 41.5097 58.048 41.4067 58.4016C41.298 58.7531 41.1597 59.1062 40.9858 59.4556C40.6388 60.1534 40.1524 60.8345 39.5238 61.4306C38.8968 62.0252 38.1397 62.5532 37.262 62.9103C36.3861 63.2592 35.3933 63.4655 34.3731 63.3647C32.3429 63.1892 30.2703 61.8426 29.3005 59.742C29.0511 59.2231 28.9054 58.6497 28.8413 58.0651C28.7661 57.4801 28.8297 56.8678 29.026 56.296C29.2197 55.7275 29.5541 55.1713 30.08 54.8192C30.3399 54.6429 30.644 54.5324 30.9583 54.4909C31.2736 54.4524 31.5977 54.4967 31.8975 54.6012C32.5002 54.8097 33.0151 55.2504 33.3449 55.802C33.6793 56.353 33.8487 56.9908 33.9192 57.631C34.0548 58.9152 33.8566 60.2471 33.3558 61.4718C32.8554 62.6963 32.0558 63.7872 31.035 64.5802C30.0148 65.3756 28.7824 65.8464 27.5424 65.9852C26.3018 66.1256 25.0406 65.9298 23.9571 65.4015C22.8706 64.875 21.9958 64.0155 21.407 63.0322C20.8119 62.0489 20.5169 60.9213 20.5441 59.8327C20.5596 59.2904 20.643 58.7484 20.8518 58.2581C21.0537 57.7698 21.3466 57.3157 21.7538 56.9914C22.1541 56.6639 22.6832 56.4923 23.1849 56.5681C23.6874 56.6377 24.1252 56.919 24.4469 57.2706C24.7649 57.6284 24.9886 58.058 25.0799 58.5093C25.1715 58.959 25.1573 59.4134 25.0781 59.8404C24.9161 60.6983 24.5382 61.4475 24.1392 62.1112C23.737 62.7776 23.2852 63.36 22.8207 63.864C22.356 64.3683 21.8789 64.7943 21.4176 65.1571C20.9492 65.511 20.5021 65.8084 20.082 66.0451C19.2444 66.5249 18.5374 66.7867 18.055 66.9395C17.5718 67.0933 17.3105 67.1464 17.3105 67.1464C17.3105 67.1464 17.3734 67.1237 17.4976 67.0862C17.6209 67.0456 17.8093 67.002 18.0463 66.9131C18.5245 66.7521 19.2259 66.4832 20.0553 65.9984C20.4715 65.7591 20.9141 65.4601 21.3775 65.1051C21.8337 64.7412 22.3053 64.3153 22.7642 63.8118C23.2226 63.3088 23.6684 62.7285 24.0645 62.0658C24.4579 61.4053 24.8279 60.6622 24.9828 59.8227C25.0591 59.405 25.0704 58.9632 24.9807 58.5296C24.892 58.0976 24.6746 57.6841 24.3687 57.3418C24.0589 57.0053 23.6412 56.7409 23.1704 56.677C22.7004 56.6076 22.2053 56.7684 21.8256 57.0803C21.439 57.389 21.1555 57.8284 20.961 58.3024C20.7597 58.7777 20.6797 59.3041 20.6652 59.8359C20.6407 60.8997 20.931 62.0041 21.516 62.9673C22.0947 63.9305 22.9529 64.7705 24.0146 65.2835C25.0744 65.7989 26.3105 65.99 27.5276 65.8514C28.7444 65.7142 29.9531 65.2513 30.9514 64.4723C31.9513 63.6949 32.7369 62.6237 33.2288 61.4198C33.7213 60.2162 33.9163 58.9051 33.7835 57.6458C33.7149 57.0191 33.5497 56.4007 33.2291 55.8724C32.9148 55.3449 32.4232 54.9258 31.8537 54.7284C31.5708 54.6297 31.2675 54.5883 30.9741 54.6239C30.6812 54.6627 30.398 54.7651 30.1544 54.9298C29.6615 55.2583 29.3379 55.7893 29.1506 56.3385C28.9603 56.8921 28.8975 57.4822 28.9701 58.0522C29.0318 58.622 29.1727 59.182 29.416 59.6897C30.3603 61.7468 32.3962 63.0763 34.3836 63.2515C35.383 63.3529 36.3589 63.1531 37.2224 62.8124C38.0874 62.4635 38.8361 61.945 39.4571 61.3607C40.0799 60.7748 40.5625 60.104 40.9082 59.4168C41.0814 59.073 41.2196 58.7241 41.3284 58.3789C41.4313 58.0322 41.4893 57.6843 41.5176 57.3463C41.6163 55.9856 41.3033 54.819 40.9689 53.9272C40.6251 53.031 40.2229 52.3906 39.8888 52.0135C39.7223 51.8237 39.5713 51.7021 39.4618 51.6345C39.3528 51.5638 39.2855 51.5501 39.2882 51.5435Z" fill="black"/>
<path d="M43.5055 14.6271C43.5055 14.6271 43.4981 14.5822 43.4878 14.4975C43.4775 14.4088 43.463 14.2845 43.4443 14.1223C43.407 13.7887 43.3529 13.3029 43.2825 12.6719C43.1447 11.4057 42.9444 9.56132 42.6908 7.22846L42.7365 7.26541C36.2771 7.94626 25.908 9.03933 14.2387 10.2694L14.2372 10.2696L14.2984 10.1941C14.5633 12.7344 14.8217 15.2127 15.0703 17.5973L14.9964 17.5373C23.1276 16.7003 30.2446 15.9677 35.3336 15.4439C37.88 15.186 39.9178 14.9797 41.3246 14.8374C42.025 14.768 42.5673 14.7144 42.9397 14.6778C43.1215 14.6606 43.2608 14.6474 43.3598 14.6382C43.4545 14.6297 43.5055 14.6271 43.5055 14.6271C43.5055 14.6271 43.4609 14.6347 43.369 14.6458C43.2722 14.6569 43.1358 14.6727 42.9579 14.6931C42.5892 14.7337 42.0525 14.7926 41.3592 14.8688C39.9571 15.0198 37.9256 15.2385 35.3877 15.5119C30.2887 16.0521 23.1577 16.8079 15.0101 17.6711L14.9433 17.6783L14.9362 17.6112C14.6866 15.2269 14.4274 12.7487 14.1614 10.2087L14.1543 10.1403L14.2226 10.1332L14.2245 10.1329C25.8961 8.92506 36.267 7.85153 42.7278 7.18281L42.7692 7.17859L42.7734 7.22002C43.0086 9.56554 43.1943 11.4197 43.3221 12.6927C43.3833 13.3205 43.4303 13.8043 43.4627 14.136C43.4775 14.2956 43.4889 14.4178 43.497 14.5049C43.5039 14.5872 43.5055 14.6271 43.5055 14.6271Z" fill="#455A64"/>
<path d="M79.0841 4.80364L78.2691 5.9993L75.5129 4.13051L76.3279 2.93485C76.7942 2.25078 77.7543 2.09085 78.4728 2.57782L78.6279 2.68295C79.3462 3.16978 79.5504 4.11924 79.0841 4.80364Z" fill="#111111"/>
<path d="M79.0841 4.80364L78.2691 5.9993L75.5129 4.13051L76.3279 2.93485C76.7942 2.25078 77.7543 2.09085 78.4728 2.57782L78.6279 2.68295C79.3462 3.16978 79.5504 4.11924 79.0841 4.80364Z" fill="black" fill-opacity="0.1"/>
<path d="M40.0732 56.618L45.9097 45.0103L73.2612 4.88044C73.5276 4.48988 74.0757 4.39844 74.4857 4.67656L78.4398 7.3576C78.8499 7.63572 78.9664 8.17757 78.7003 8.56827L51.2448 48.8506L42.1267 58.0102L40.0732 56.618Z" fill="#111111"/>
<path d="M40.0732 56.618L45.9097 45.0103L73.2612 4.88044C73.5276 4.48988 74.0757 4.39844 74.4857 4.67656L78.4398 7.3576C78.8499 7.63572 78.9664 8.17757 78.7003 8.56827L51.2448 48.8506L42.1267 58.0102L40.0732 56.618Z" fill="black" fill-opacity="0.1"/>
<path d="M40.6507 57.0127L39.9817 57.9943L39.7379 59.0367C39.7479 59.1423 39.8298 59.1698 39.936 59.1709L40.7763 58.5045L41.4321 57.5424L40.6507 57.0127Z" fill="#111111"/>
<path d="M46.4797 44.1752L45.9121 45.0081L51.3515 48.696L51.9191 47.8632L46.4797 44.1752Z" fill="#111111"/>
<path d="M74.0482 4.19677C74.5829 4.55934 74.735 5.26623 74.3878 5.7756L60.7356 25.8062C60.3884 26.3156 59.6734 26.4346 59.1387 26.072C58.604 25.7095 58.4519 25.0026 58.7991 24.4932L72.4513 4.46258C72.7982 3.95308 73.5132 3.83406 74.0482 4.19677Z" fill="#111111"/>
<path d="M74.0472 4.1967C74.0426 4.21263 73.8807 4.05481 73.4991 4.00717C73.312 3.98945 73.0693 4.01046 72.8334 4.14271C72.7162 4.20763 72.6029 4.30012 72.5101 4.42124C72.4189 4.54398 72.3296 4.68619 72.2305 4.83012C71.4413 5.99692 70.3036 7.67883 68.8988 9.75535C67.4874 11.8333 65.808 14.3057 63.9435 17.0508C63.0097 18.4231 62.0297 19.8634 61.0137 21.3565C60.5054 22.103 59.9879 22.8624 59.4631 23.6332C59.3318 23.8258 59.2 24.0192 59.0678 24.2133C58.9402 24.4123 58.7822 24.592 58.7209 24.8051C58.5833 25.2347 58.7731 25.7554 59.1718 26.0194C59.5642 26.2933 60.1197 26.2785 60.4706 25.9938C60.6472 25.8588 60.7567 25.6465 60.8951 25.4544C61.0275 25.2602 61.1595 25.0669 61.2908 24.8743C61.8165 24.1035 62.3345 23.3442 62.8434 22.5981C63.8619 21.1063 64.8443 19.6669 65.7802 18.296C67.6538 15.5564 69.3412 13.0892 70.7592 11.0158C72.1785 8.94885 73.3279 7.27531 74.1252 6.11402C74.2232 5.96908 74.3228 5.83408 74.4036 5.70433C74.4822 5.57355 74.5267 5.4345 74.5442 5.30208C74.5808 5.03461 74.511 4.80184 74.4255 4.63494C74.2404 4.29891 74.0339 4.2067 74.0472 4.1967C74.0472 4.1967 74.0921 4.2213 74.1696 4.28424C74.2468 4.34671 74.3542 4.45432 74.4487 4.6241C74.5397 4.79313 74.6161 5.03134 74.5826 5.30848C74.5665 5.44578 74.5226 5.5909 74.4425 5.72762C74.3605 5.86311 74.2646 5.99597 74.1675 6.14287C73.3782 7.30967 72.2407 8.99138 70.8359 11.0679C69.4245 13.1459 67.745 15.6185 65.8801 18.3637C64.9462 19.7361 63.966 21.1766 62.9496 22.67C62.4411 23.4167 61.9236 24.1761 61.3986 24.9473C61.2673 25.1399 61.1354 25.3335 61.0032 25.5276L60.8043 25.8193C60.735 25.9187 60.653 26.017 60.5538 26.0935C60.1612 26.4123 59.5402 26.4289 59.1009 26.1223C58.6545 25.8268 58.4423 25.2446 58.5964 24.7636C58.6309 24.6433 58.6934 24.5312 58.7603 24.4309L58.959 24.1394C59.0913 23.9453 59.2233 23.752 59.3546 23.5594C59.8801 22.7889 60.398 22.0297 60.9068 21.2838C61.9252 19.7922 62.9071 18.3535 63.8431 16.9826C65.7163 14.2436 67.4036 11.7764 68.8217 9.70295C70.241 7.63602 71.3905 5.96228 72.1878 4.801C72.2891 4.65702 72.378 4.51912 72.4739 4.39316C72.5721 4.26835 72.6912 4.1744 72.8132 4.1089C73.0592 3.97575 73.3096 3.95877 73.5007 3.98103C73.6938 4.00608 73.8335 4.06621 73.9202 4.1148C74.0074 4.16401 74.0472 4.1967 74.0472 4.1967Z" fill="#111111"/>
<path d="M74.2174 4.4945L75.448 3.80618L78.5731 5.92491L78.5142 7.40804L74.2174 4.4945Z" fill="#111111"/>
</svg>
