<svg width="63" height="18" viewBox="0 0 63 18" fill="none" xmlns="http://www.w3.org/2000/svg">
<mask id="mask0_86_2974" style="mask-type:luminance" maskUnits="userSpaceOnUse" x="0" y="0" width="63" height="18">
<path d="M0.904297 0.797607H62.0944V17.2023H0.904297V0.797607Z" fill="white"/>
</mask>
<g mask="url(#mask0_86_2974)">
<path d="M9.89355 14.9771C13.1844 14.9771 15.8515 12.2954 15.8515 8.98757C15.8515 5.67973 13.184 2.99756 9.89355 2.99756C6.60314 2.99756 3.93555 5.67928 3.93555 8.98757C3.93555 12.2959 6.60269 14.9771 9.89355 14.9771Z" fill="black"/>
<mask id="mask1_86_2974" style="mask-type:luminance" maskUnits="userSpaceOnUse" x="3" y="3" width="13" height="12">
<path d="M9.89745 14.981C13.1883 14.981 15.8555 12.2993 15.8555 8.99147C15.8555 5.68364 13.1879 3.00146 9.89745 3.00146C6.60705 3.00146 3.93945 5.68318 3.93945 8.99147C3.93945 12.2998 6.60659 14.981 9.89745 14.981Z" fill="white"/>
</mask>
<g mask="url(#mask1_86_2974)">
<path d="M12.0966 7.22908C11.6084 6.72236 11.4398 5.86157 11.3963 5.271H9.94531C9.98883 5.85974 10.1575 6.72236 10.6456 7.22908C10.9466 7.54077 11.3546 7.69388 11.875 7.69206V9.62326C11.3546 9.62326 10.9466 9.77455 10.6456 10.0862C10.1575 10.593 9.98883 11.4538 9.94531 12.0443H11.3963C11.4398 11.4556 11.6084 10.5934 12.0962 10.0862C12.3976 9.77455 12.8056 9.62144 13.3259 9.62326V7.69206C12.8056 7.69206 12.3976 7.54077 12.0962 7.22908" fill="#21FF90"/>
<path d="M9.30132 7.22908C8.81359 6.72236 8.64496 5.86157 8.60145 5.271H6.94922C6.98911 6.04749 7.19762 7.42047 8.11145 8.37423C8.20936 8.4763 8.31497 8.57108 8.42376 8.65675C8.31497 8.74424 8.20936 8.8372 8.11145 8.93928C7.19581 9.89303 6.98911 11.2678 6.94922 12.0425H8.60145C8.64496 11.4538 8.81359 10.5916 9.30132 10.0844C9.60276 9.77273 10.0107 9.61962 10.5311 9.62144V7.69024C10.0107 7.69024 9.60231 7.53895 9.30132 7.22726V7.22908Z" fill="#21FF90"/>
</g>
<path d="M19.0405 6.34192H22.9515L18.2808 11.586L18.2754 11.6334V14.1697H26.3666V11.6338H21.6252L26.3666 6.34238V3.80602H19.041L19.0405 6.34192ZM28.7803 3.80602C27.7207 5.32388 27.1526 7.13332 27.1535 8.98764C27.1535 10.9134 27.7577 12.7019 28.7808 14.1715H35.1177C36.1787 12.6535 36.7471 10.8429 36.745 8.98764C36.745 7.06008 36.1421 5.27561 35.1177 3.80602H28.7767H28.7803ZM31.9511 13.9419C30.5595 12.7439 29.6765 10.9681 29.6765 8.98764C29.6765 7.00768 30.5599 5.23004 31.9511 4.03387C33.3422 5.23187 34.2252 7.00768 34.2252 8.98764C34.2252 10.9676 33.3422 12.7457 31.9511 13.9419ZM55.2591 3.8042H52.1649V3.80967H50.5653V14.172H53.0878V11.5094H55.2609C57.3741 11.5094 59.0934 9.78099 59.0934 7.65658C59.0934 5.53262 57.3741 3.8042 55.2609 3.8042H55.2591ZM55.2591 8.97488H53.086V6.34055H55.2591C55.6067 6.34104 55.94 6.48008 56.1858 6.72721C56.4316 6.97433 56.5699 7.30937 56.5704 7.65886C56.5702 8.00838 56.4319 8.3435 56.186 8.59061C55.9401 8.83771 55.6067 8.97658 55.2591 8.9767V8.97488ZM43.5434 14.0403C43.4654 12.8332 42.7329 9.61694 40.3441 8.98764C42.8689 8.21662 43.4654 5.14255 43.5434 3.93544V3.8042H41.0222C40.9551 4.70646 40.6977 6.02659 39.9507 6.79989C39.4897 7.27745 38.8659 7.51076 38.0677 7.50893V10.4663C38.8655 10.4663 39.4915 10.7001 39.9507 11.1758C40.6977 11.9505 40.9551 13.2711 41.0222 14.1715H43.5434V14.0403ZM43.5461 14.0403C43.6241 12.8332 44.3571 9.61694 46.7459 8.98764C44.2211 8.21662 43.6241 5.14255 43.5461 3.93544V3.8042H46.0673C46.1344 4.70646 46.3919 6.02659 47.1393 6.79989C47.5999 7.27745 48.224 7.51076 49.0218 7.50893V10.4663C48.224 10.4663 47.5981 10.7001 47.1393 11.1758C46.3919 11.9505 46.1344 13.2711 46.0673 14.1715H43.5461V14.0403Z" fill="black"/>
</g>
</svg>
